<svg fill="none" height="30" viewBox="0 0 30 30" width="30" xmlns="http://www.w3.org/2000/svg"><path d="m27.191 8.723c-1.178-2.04157-2.8735-3.73652-4.9154-4.914-2.0695-1.20555-4.328-1.809-6.7756-1.809-2.4475 0-4.7061.60345-6.777 1.809-2.06955 1.20555-3.70845 2.84445-4.914 4.914-1.20555 2.0696-1.809 4.3295-1.809 6.777 0 2.4476.6021 4.7075 1.809 6.777 1.17764 2.0419 2.87314 3.7369 4.91535 4.914 2.06955 1.2056 4.32815 1.809 6.77565 1.809 2.4476 0 4.7061-.6034 6.777-1.809 2.0419-1.1775 3.7373-2.8724 4.9153-4.914 1.2056-2.0695 1.8077-4.3294 1.8077-6.777 0-2.4475-.6021-4.7074-1.809-6.777zm-11.691-4.482c2.7 0 5.0922.864 7.182 2.59065-1.242 1.5849-3.0861 2.889-5.535 3.91505-1.3527-2.4476-2.8188-4.4915-4.4024-6.12905.8975-.24815 1.8242-.37483 2.7554-.37665zm-8.7615 4.239c.98717-1.25357 2.23623-2.27641 3.6598-2.997 1.6362 1.62135 3.1388 3.645 4.5091 6.075-2.7.81-5.55395 1.215-8.5604 1.215-.77355 0-1.3581-.0176-1.755-.054.41374-1.5466 1.14473-2.99017 2.1465-4.239zm-2.4975 7.02c0-.0729.00405-.162.0135-.27s.0135-.1971.0135-.27c.3429.0189.86535.027 1.56735.027 3.5991 0 6.94705-.4954 10.04265-1.485.2524.5036.5143 1.0705.783 1.701-1.782.3955-3.6099 1.3581-5.4824 2.889-1.8724 1.5309-3.2386 3.1415-4.1026 4.833-1.89-2.1424-2.835-4.617-2.835-7.425zm11.259 11.259c-2.5569 0-4.8519-.7925-6.88635-2.3747.81135-1.6024 2.05745-3.1346 3.74085-4.5913 1.6821-1.458 3.3521-2.3665 5.0085-2.727 1.0449 2.8876 1.7516 5.8866 2.106 8.937-1.2651.4944-2.6107.7507-3.969.756zm9.558-5.346c-.8836 1.4236-2.0735 2.6324-3.483 3.5383-.324-2.808-.945-5.5444-1.8616-8.2093 1.2582-.0891 2.3827-.135 3.375-.135 1.0786 0 2.2761.0459 3.5896.135-.1762 1.6603-.7304 3.2581-1.62 4.671zm-1.674-6.75c-1.566 0-3.0145.0635-4.347.189-.2822-.7387-.5884-1.4681-.918-2.187 2.7891-1.2231 4.7682-2.7081 5.9387-4.455 1.62 1.9089 2.5029 4.0864 2.646 6.534-1.0962-.054-2.2032-.081-3.3197-.081z" fill="#a3a3a3"/></svg>