<svg width="32" height="31" viewBox="0 0 32 31" fill="none" xmlns="http://www.w3.org/2000/svg">
<path d="M29.6371 7.719C28.2845 5.37498 26.338 3.42893 23.9936 2.077C21.6174 0.69285 19.0243 0 16.2141 0C13.404 0 10.8108 0.69285 8.43311 2.077C6.05696 3.46115 4.17526 5.34285 2.79111 7.719C1.40696 10.0951 0.714111 12.6898 0.714111 15.5C0.714111 18.3102 1.40541 20.9049 2.79111 23.281C4.14321 25.6254 6.08991 27.5715 8.43466 28.923C10.8108 30.3071 13.404 31 16.2141 31C19.0243 31 21.6174 30.3071 23.9951 28.923C26.3395 27.5711 28.2861 25.625 29.6387 23.281C31.0228 20.9049 31.7141 18.3102 31.7141 15.5C31.7141 12.6898 31.0228 10.0951 29.6371 7.719ZM16.2141 2.573C19.3141 2.573 22.0607 3.565 24.4601 5.54745C23.0341 7.36715 20.9168 8.86445 18.1051 10.0424C16.552 7.2323 14.8687 4.8856 13.0506 3.00545C14.081 2.72053 15.145 2.57509 16.2141 2.573ZM6.15461 7.44C7.28803 6.00071 8.72213 4.82635 10.3567 3.999C12.2353 5.86055 13.9604 8.184 15.5337 10.974C12.4337 11.904 9.15696 12.369 5.70511 12.369C4.81696 12.369 4.14581 12.3488 3.69011 12.307C4.16515 10.5313 5.00443 8.87384 6.15461 7.44ZM3.28711 15.5C3.28711 15.4163 3.29176 15.314 3.30261 15.19C3.31346 15.066 3.31811 14.9637 3.31811 14.88C3.71181 14.9017 4.31166 14.911 5.11766 14.911C9.24996 14.911 13.094 14.3422 16.6481 13.206C16.938 13.7842 17.2387 14.4351 17.5471 15.159C15.5011 15.6131 13.4024 16.7183 11.2526 18.476C9.10271 20.2337 7.53411 22.0828 6.54211 24.025C4.37211 21.5651 3.28711 18.724 3.28711 15.5ZM16.2141 28.427C13.2784 28.427 10.6434 27.5171 8.30756 25.7005C9.23911 23.8607 10.6698 22.1014 12.6026 20.429C14.5339 18.755 16.4513 17.7118 18.3531 17.298C19.5528 20.6134 20.3642 24.0567 20.7711 27.559C19.3186 28.1266 17.7736 28.4209 16.2141 28.427ZM27.1881 22.289C26.1736 23.9235 24.8074 25.3114 23.1891 26.3515C22.8171 23.1275 22.1041 19.9857 21.0517 16.926C22.4963 16.8237 23.7874 16.771 24.9267 16.771C26.1651 16.771 27.54 16.8237 29.0481 16.926C28.8458 18.8322 28.2095 20.6668 27.1881 22.289ZM25.2661 14.539C23.4681 14.539 21.805 14.6118 20.2751 14.756C19.9511 13.9078 19.5995 13.0704 19.2211 12.245C22.4234 10.8407 24.6957 9.1357 26.0396 7.13C27.8996 9.3217 28.9133 11.8218 29.0776 14.632C27.819 14.57 26.548 14.539 25.2661 14.539Z" fill="#A3A3A3"/>
</svg>
