<svg width="30" height="30" viewBox="0 0 30 30" fill="none" xmlns="http://www.w3.org/2000/svg">
<circle cx="15" cy="15" r="13" stroke="#A3A3A3" stroke-width="2"/>
<path d="M17.7692 27V21.629C17.7981 21.2502 17.7485 20.8695 17.6239 20.512C17.4992 20.1545 17.3023 19.8285 17.0462 19.5557C19.4615 19.2777 22 18.3324 22 13.995C21.9998 12.8859 21.5867 11.8194 20.8462 11.0161C21.1968 10.0458 21.172 8.97323 20.7769 8.02128C20.7769 8.02128 19.8692 7.74325 17.7692 9.19697C16.0062 8.70352 14.1477 8.70352 12.3846 9.19697C10.2846 7.74325 9.37692 8.02128 9.37692 8.02128C8.98183 8.97323 8.95703 10.0458 9.30769 11.0161C8.56164 11.8253 8.14809 12.9015 8.15385 14.0189C8.15385 18.3244 10.6923 19.2697 13.1077 19.5795C12.8546 19.8496 12.6594 20.1717 12.5349 20.5248C12.4103 20.8779 12.3591 21.2541 12.3846 21.629V27M12.3846 22.3202C8.53846 23.5117 8.53846 20.3342 7 19.937L9.76108 22.3838L11 22.6154L12.3846 22.3202Z" stroke="#A3A3A3" stroke-width="1.5" stroke-linecap="round" stroke-linejoin="round"/>
</svg>
