<svg width="32" height="32" viewBox="0 0 32 32" fill="none" xmlns="http://www.w3.org/2000/svg">
<path d="M23.0357 2H9.0119C5.13934 2 2 5.13934 2 9.0119V23.0357C2 26.9083 5.13934 30.0476 9.0119 30.0476H23.0357C26.9083 30.0476 30.0476 26.9083 30.0476 23.0357V9.0119C30.0476 5.13934 26.9083 2 23.0357 2Z" stroke="#A3A3A3" stroke-width="2.5" stroke-linecap="round" stroke-linejoin="round"/>
<path d="M21.6335 15.1403C21.8065 16.3075 21.6072 17.4994 21.0638 18.5467C20.5203 19.594 19.6605 20.4433 18.6066 20.9738C17.5527 21.5042 16.3583 21.6889 15.1934 21.5014C14.0285 21.314 12.9524 20.764 12.1181 19.9297C11.2838 19.0954 10.7338 18.0192 10.5463 16.8543C10.3589 15.6894 10.5435 14.4951 11.074 13.4412C11.6045 12.3872 12.4538 11.5274 13.501 10.984C14.5483 10.4406 15.7403 10.2412 16.9075 10.4143C18.098 10.5908 19.2001 11.1456 20.0512 11.9966C20.9022 12.8476 21.4569 13.9498 21.6335 15.1403Z" stroke="#A3A3A3" stroke-width="2.5" stroke-linecap="round" stroke-linejoin="round"/>
<path d="M23.7366 8.3107H23.7509" stroke="#A3A3A3" stroke-width="2.5" stroke-linecap="round" stroke-linejoin="round"/>
</svg>
