<svg width="30" height="30" viewBox="0 0 30 30" fill="none" xmlns="http://www.w3.org/2000/svg">
<path d="M21 3H9C5.68629 3 3 5.68629 3 9V21C3 24.3137 5.68629 27 9 27H21C24.3137 27 27 24.3137 27 21V9C27 5.68629 24.3137 3 21 3Z" stroke="#A3A3A3" stroke-width="2.5" stroke-linecap="round" stroke-linejoin="round"/>
<path d="M19.7998 14.244C19.9479 15.2427 19.7773 16.2627 19.3123 17.1588C18.8473 18.055 18.1116 18.7817 17.2097 19.2356C16.3079 19.6895 15.2859 19.8475 14.2891 19.6871C13.2923 19.5267 12.3715 19.0561 11.6576 18.3422C10.9437 17.6283 10.4731 16.7075 10.3127 15.7107C10.1523 14.7139 10.3103 13.6919 10.7642 12.7901C11.2181 11.8883 11.9448 11.1525 12.841 10.6875C13.7371 10.2225 14.7571 10.0519 15.7558 10.2C16.7745 10.3511 17.7176 10.8258 18.4458 11.554C19.174 12.2822 19.6487 13.2253 19.7998 14.244Z" stroke="#A3A3A3" stroke-width="2.5" stroke-linecap="round" stroke-linejoin="round"/>
<path d="M21.6001 8.39996H21.6144" stroke="#A3A3A3" stroke-width="2.5" stroke-linecap="round" stroke-linejoin="round"/>
</svg>
