<svg width="30" height="30" viewBox="0 0 30 30" fill="none" xmlns="http://www.w3.org/2000/svg">
<path d="M20.7659 10.8512L21.8611 9.79878V9.56829H18.0679L15.3645 16.3293L12.2895 9.56829H8.31223V9.79878L9.59154 11.3461C9.71661 11.4605 9.78094 11.6284 9.76486 11.7964V17.8767C9.80416 18.0964 9.73448 18.3198 9.58082 18.4788L8.13892 20.2352V20.4621H12.2234V20.2316L10.7833 18.4806C10.7061 18.4022 10.6481 18.3072 10.6137 18.2027C10.5793 18.0983 10.5695 17.9873 10.585 17.8785V12.6183L14.171 20.4657H14.5873L17.6712 12.6183V18.8701C17.6712 19.0345 17.6712 19.0684 17.564 19.1774L16.4544 20.2548V20.4853H21.8361V20.2548L20.7659 19.2024C20.673 19.131 20.6247 19.0112 20.6444 18.8951V11.1585C20.6351 11.1011 20.6415 11.0422 20.6629 10.9881C20.6843 10.9341 20.7198 10.8867 20.7659 10.8512V10.8512Z" fill="#A3A3A3"/>
<rect x="3" y="3" width="24" height="24" rx="5" stroke="#A3A3A3" stroke-width="2"/>
</svg>
