<svg width="32" height="30" viewBox="0 0 32 30" fill="none" xmlns="http://www.w3.org/2000/svg">
<g clip-path="url(#clip0)">
<path d="M30.1971 7.60026C30.0416 6.89421 29.7249 6.24729 29.279 5.72486C28.8331 5.20243 28.2738 4.82298 27.6576 4.62484C25.4061 4 16.4 4 16.4 4C16.4 4 7.39392 4 5.1424 4.68435C4.52618 4.88249 3.96687 5.26194 3.52098 5.78437C3.07508 6.3068 2.7584 6.95371 2.6029 7.65977C2.19084 10.2566 1.98928 12.891 2.00075 15.5298C1.98606 18.1884 2.18763 20.8428 2.6029 23.4593C2.77433 24.1434 3.09811 24.7657 3.54297 25.266C3.98782 25.7664 4.53871 26.1279 5.1424 26.3157C7.39392 27 16.4 27 16.4 27C16.4 27 25.4061 27 27.6576 26.3157C28.2738 26.1175 28.8331 25.7381 29.279 25.2156C29.7249 24.6932 30.0416 24.0463 30.1971 23.3402C30.606 20.7629 30.8075 18.1486 30.7993 15.5298C30.8139 12.8711 30.6124 10.2167 30.1971 7.60026V7.60026Z" stroke="#A3A3A3" stroke-width="2.5" stroke-linecap="round" stroke-linejoin="round"/>
<path d="M14.1848 19.7167L20.831 15.8834L14.1848 12.05V19.7167Z" stroke="#A3A3A3" stroke-width="2" stroke-linecap="round" stroke-linejoin="round"/>
</g>
<defs>
<clipPath id="clip0">
<rect width="32" height="30" fill="white"/>
</clipPath>
</defs>
</svg>
