<svg width="37" height="29" viewBox="0 0 37 29" fill="none" xmlns="http://www.w3.org/2000/svg">
<path d="M34.6225 5.92823C34.4392 5.15786 34.0658 4.45202 33.5402 3.88199C33.0145 3.31197 32.3551 2.89795 31.6287 2.68176C28.9743 2 18.357 2 18.357 2C18.357 2 7.73977 2 5.08545 2.74669C4.35897 2.96288 3.69961 3.3769 3.17394 3.94692C2.64828 4.51694 2.27493 5.22279 2.09162 5.99316C1.60584 8.82661 1.36822 11.701 1.38174 14.5801C1.36443 17.4809 1.60206 20.3772 2.09162 23.2319C2.29372 23.9784 2.67542 24.6574 3.19986 25.2033C3.72431 25.7493 4.37375 26.1437 5.08545 26.3485C7.73977 27.0952 18.357 27.0952 18.357 27.0952C18.357 27.0952 28.9743 27.0952 31.6287 26.3485C32.3551 26.1324 33.0145 25.7183 33.5402 25.1483C34.0658 24.5783 34.4392 23.8724 34.6225 23.1021C35.1045 20.29 35.3421 17.4375 35.3324 14.5801C35.3497 11.6793 35.112 8.78302 34.6225 5.92823V5.92823Z" stroke="#A3A3A3" stroke-width="2.5" stroke-linecap="round" stroke-linejoin="round"/>
<path d="M15.7454 19.5667L23.5805 15.175L15.7454 10.7834V19.5667Z" stroke="#A3A3A3" stroke-width="2.5" stroke-linecap="round" stroke-linejoin="round"/>
</svg>
